<svg xmlns="http://www.w3.org/2000/svg" xmlns:xlink="http://www.w3.org/1999/xlink" width="500" zoomAndPan="magnify" viewBox="0 0 375 374.999991" height="500" preserveAspectRatio="xMidYMid meet" version="1.0"><defs><clipPath id="23164ecb19"><path d="M 111 9.886719 L 267 9.886719 L 267 48 L 111 48 Z M 111 9.886719 " clip-rule="nonzero"/></clipPath><clipPath id="d2d95fa751"><path d="M 74 9.886719 L 282 9.886719 L 282 85 L 74 85 Z M 74 9.886719 " clip-rule="nonzero"/></clipPath><clipPath id="2fbebef882"><path d="M 239 21 L 309.363281 21 L 309.363281 95 L 239 95 Z M 239 21 " clip-rule="nonzero"/></clipPath><clipPath id="b173b5340c"><path d="M 65.613281 21 L 156 21 L 156 138 L 65.613281 138 Z M 65.613281 21 " clip-rule="nonzero"/></clipPath><clipPath id="b0308f5d7f"><path d="M 107 9.886719 L 287 9.886719 L 287 83 L 107 83 Z M 107 9.886719 " clip-rule="nonzero"/></clipPath><clipPath id="506fa91a71"><path d="M 247 42 L 309.363281 42 L 309.363281 174 L 247 174 Z M 247 42 " clip-rule="nonzero"/></clipPath><clipPath id="2a83e7936d"><path d="M 256 147 L 309.363281 147 L 309.363281 263 L 256 263 Z M 256 147 " clip-rule="nonzero"/></clipPath><clipPath id="3cda269b04"><path d="M 265 149 L 309.363281 149 L 309.363281 243 L 265 243 Z M 265 149 " clip-rule="nonzero"/></clipPath><clipPath id="f1ebc6321d"><path d="M 65.613281 19 L 190 19 L 190 160 L 65.613281 160 Z M 65.613281 19 " clip-rule="nonzero"/></clipPath><clipPath id="b8296a4f6c"><path d="M 153 14 L 309.363281 14 L 309.363281 209 L 153 209 Z M 153 14 " clip-rule="nonzero"/></clipPath><clipPath id="bdfd4465a8"><path d="M 65.613281 79 L 130 79 L 130 177 L 65.613281 177 Z M 65.613281 79 " clip-rule="nonzero"/></clipPath><clipPath id="cb55ff3c73"><path d="M 247 170 L 309.363281 170 L 309.363281 273 L 247 273 Z M 247 170 " clip-rule="nonzero"/></clipPath><clipPath id="6d05bb760f"><path d="M 244 215 L 309.363281 215 L 309.363281 282 L 244 282 Z M 244 215 " clip-rule="nonzero"/></clipPath><clipPath id="104febce3d"><path d="M 65.613281 34 L 269 34 L 269 187 L 65.613281 187 Z M 65.613281 34 " clip-rule="nonzero"/></clipPath><clipPath id="8c2b377ce3"><path d="M 226 62 L 309.363281 62 L 309.363281 292 L 226 292 Z M 226 62 " clip-rule="nonzero"/></clipPath><clipPath id="fd6fbf148e"><path d="M 65.613281 43 L 209 43 L 209 200 L 65.613281 200 Z M 65.613281 43 " clip-rule="nonzero"/></clipPath><clipPath id="d70f904a2a"><path d="M 65.613281 52 L 280 52 L 280 213 L 65.613281 213 Z M 65.613281 52 " clip-rule="nonzero"/></clipPath><clipPath id="8cc060cb2d"><path d="M 217 174 L 309.363281 174 L 309.363281 301 L 217 301 Z M 217 174 " clip-rule="nonzero"/></clipPath><clipPath id="73cac6e017"><path d="M 230 240 L 309.363281 240 L 309.363281 310 L 230 310 Z M 230 240 " clip-rule="nonzero"/></clipPath><clipPath id="bd6f1f5162"><path d="M 65.613281 83 L 169 83 L 169 224 L 65.613281 224 Z M 65.613281 83 " clip-rule="nonzero"/></clipPath><clipPath id="cdd3c7ae4c"><path d="M 200 213 L 309.363281 213 L 309.363281 319 L 200 319 Z M 200 213 " clip-rule="nonzero"/></clipPath><clipPath id="0463e78baa"><path d="M 155 331 L 225 331 L 225 365.386719 L 155 365.386719 Z M 155 331 " clip-rule="nonzero"/></clipPath><clipPath id="045557021d"><path d="M 141 322 L 239 322 L 239 365.386719 L 141 365.386719 Z M 141 322 " clip-rule="nonzero"/></clipPath><clipPath id="c4812ad9a1"><path d="M 128 314 L 206 314 L 206 365.386719 L 128 365.386719 Z M 128 314 " clip-rule="nonzero"/></clipPath><clipPath id="d71e5c00ad"><path d="M 164 313 L 253 313 L 253 365.386719 L 164 365.386719 Z M 164 313 " clip-rule="nonzero"/></clipPath><clipPath id="21697c0672"><path d="M 117 303 L 241 303 L 241 365.386719 L 117 365.386719 Z M 117 303 " clip-rule="nonzero"/></clipPath><clipPath id="de9f0f0209"><path d="M 198 317 L 264 317 L 264 365.386719 L 198 365.386719 Z M 198 317 " clip-rule="nonzero"/></clipPath><clipPath id="b9687a78fd"><path d="M 106 297 L 196 297 L 196 365.386719 L 106 365.386719 Z M 106 297 " clip-rule="nonzero"/></clipPath><clipPath id="dd653a8fa0"><path d="M 155 293 L 273 293 L 273 365.386719 L 155 365.386719 Z M 155 293 " clip-rule="nonzero"/></clipPath><clipPath id="0f1cee92e7"><path d="M 194 293 L 281 293 L 281 365.386719 L 194 365.386719 Z M 194 293 " clip-rule="nonzero"/></clipPath><clipPath id="e26920d22c"><path d="M 65.613281 116 L 214 116 L 214 282 L 65.613281 282 Z M 65.613281 116 " clip-rule="nonzero"/></clipPath><clipPath id="76cbee61b0"><path d="M 65.613281 106 L 224 106 L 224 291 L 65.613281 291 Z M 65.613281 106 " clip-rule="nonzero"/></clipPath><clipPath id="05ef8c8410"><path d="M 65.613281 148 L 188 148 L 188 273 L 65.613281 273 Z M 65.613281 148 " clip-rule="nonzero"/></clipPath><clipPath id="08e419a6dc"><path d="M 65.613281 99 L 234 99 L 234 264 L 65.613281 264 Z M 65.613281 99 " clip-rule="nonzero"/></clipPath><clipPath id="bf3cbbc7c2"><path d="M 65.613281 216 L 165 216 L 165 300 L 65.613281 300 Z M 65.613281 216 " clip-rule="nonzero"/></clipPath><clipPath id="89b80569cd"><path d="M 65.613281 118 L 162 118 L 162 235 L 65.613281 235 Z M 65.613281 118 " clip-rule="nonzero"/></clipPath><clipPath id="f784c51735"><path d="M 65.613281 161 L 141 161 L 141 244 L 65.613281 244 Z M 65.613281 161 " clip-rule="nonzero"/></clipPath><clipPath id="8186d1a7b2"><path d="M 65.613281 119 L 183 119 L 183 253 L 65.613281 253 Z M 65.613281 119 " clip-rule="nonzero"/></clipPath><clipPath id="f531488e8e"><path d="M 65.613281 90 L 243 90 L 243 310 L 65.613281 310 Z M 65.613281 90 " clip-rule="nonzero"/></clipPath><clipPath id="152ea4fd9d"><path d="M 189 211 L 309.363281 211 L 309.363281 325 L 189 325 Z M 189 211 " clip-rule="nonzero"/></clipPath><clipPath id="78f75c8cac"><path d="M 273 183 L 309.363281 183 L 309.363281 246 L 273 246 Z M 273 183 " clip-rule="nonzero"/></clipPath><clipPath id="5db9584f58"><path d="M 273 196 L 309.363281 196 L 309.363281 252 L 273 252 Z M 273 196 " clip-rule="nonzero"/></clipPath></defs><g clip-path="url(#23164ecb19)"><path stroke-linecap="round" transform="matrix(4.295062, 0, 0, 4.29867, -4.285527, -51.316096)" fill="none" stroke-linejoin="miter" d="M 32.550184 17.410837 C 34.271819 16.676599 35.991636 15.94236 37.930636 15.460743 C 39.868726 14.979126 42.025091 14.750131 44.203282 14.738317 C 46.381474 14.726504 48.586041 14.93369 50.776965 15.346245 C 52.967889 15.759709 55.146991 16.378541 57.325182 16.998282 " stroke="#000000" stroke-width="1" stroke-opacity="1" stroke-miterlimit="4"/></g><g clip-path="url(#d2d95fa751)"><path stroke-linecap="round" transform="matrix(4.295062, 0, 0, 4.29867, -4.285527, -51.316096)" fill="none" stroke-linejoin="miter" d="M 24.017493 25.943637 C 26.265714 24.154384 28.513026 22.365132 31.163235 20.840314 C 33.812535 19.314588 36.863822 18.052388 39.811429 17.410837 C 42.759037 16.768378 45.603873 16.745661 47.863918 16.931947 C 50.123053 17.119141 51.797396 17.515339 53.598155 18.088736 C 55.398915 18.662133 57.326092 19.412729 58.57571 20.029744 C 59.826238 20.64585 60.399207 21.127467 60.972176 21.608175 " stroke="#000000" stroke-width="1" stroke-opacity="1" stroke-miterlimit="4"/></g><g clip-path="url(#2fbebef882)"><path stroke-linecap="round" transform="matrix(4.295062, 0, 0, 4.29867, -4.285527, -51.316096)" fill="none" stroke-linejoin="miter" d="M 62.486451 22.709533 C 62.648337 22.822214 62.809315 22.936711 62.967563 23.053935 C 64.912929 24.48879 66.580906 26.298035 67.85417 28.352631 " stroke="#000000" stroke-width="1" stroke-opacity="1" stroke-miterlimit="4"/></g><g clip-path="url(#b173b5340c)"><path stroke-linecap="round" transform="matrix(4.295062, 0, 0, 4.29867, -4.285527, -51.316096)" fill="none" stroke-linejoin="miter" d="M 19.130885 38.262128 C 19.934861 37.029916 20.692453 35.766807 21.401844 34.477345 C 22.349516 32.756246 23.214427 30.979715 24.361274 29.384927 C 25.244374 28.156349 26.285722 27.04863 27.388915 26.012699 C 28.722205 24.761404 30.15008 23.610066 31.65617 22.572318 " stroke="#000000" stroke-width="1" stroke-opacity="1" stroke-miterlimit="4"/></g><g clip-path="url(#b0308f5d7f)"><path stroke-linecap="round" transform="matrix(4.295062, 0, 0, 4.29867, -4.285527, -51.316096)" fill="none" stroke-linejoin="miter" d="M 31.65617 22.572318 C 33.542421 21.377363 35.583282 20.42685 37.711452 19.750769 C 40.046074 19.009261 42.488923 18.598523 44.937228 18.580349 C 48.365038 18.554905 51.791939 19.304592 54.915984 20.714003 C 57.528905 21.892602 59.933556 23.531008 61.98624 25.531082 " stroke="#000000" stroke-width="1" stroke-opacity="1" stroke-miterlimit="4"/></g><g clip-path="url(#506fa91a71)"><path stroke-linecap="round" transform="matrix(4.295062, 0, 0, 4.29867, -4.285527, -51.316096)" fill="none" stroke-linejoin="miter" d="M 64.206268 27.389397 C 65.879701 28.873322 67.290296 30.651671 68.353472 32.619031 C 69.467578 34.679988 70.196068 36.932684 70.675361 39.225362 C 71.190123 41.688879 71.42113 44.211462 71.363833 46.726775 " stroke="#000000" stroke-width="1" stroke-opacity="1" stroke-miterlimit="4"/></g><g clip-path="url(#2a83e7936d)"><path stroke-linecap="round" transform="matrix(4.295062, 0, 0, 4.29867, -4.285527, -51.316096)" fill="none" stroke-linejoin="miter" d="M 70.39979 51.888255 C 70.009625 53.476683 69.455755 55.024218 68.748184 56.499057 C 68.176124 57.693103 67.503113 58.841714 67.028367 60.077562 C 66.714599 60.892676 66.489049 61.750499 66.477226 62.623771 C 66.46995 63.221703 66.569992 63.838718 66.890127 64.343962 C 67.137504 64.733799 67.501294 65.034582 67.873269 65.307196 C 69.073776 66.186828 70.436169 66.842918 71.872229 67.234573 " stroke="#000000" stroke-width="1" stroke-opacity="1" stroke-miterlimit="4"/></g><g clip-path="url(#3cda269b04)"><path stroke-linecap="round" transform="matrix(4.295062, 0, 0, 4.29867, -4.285527, -51.316096)" fill="none" stroke-linejoin="miter" d="M 68.353472 62.623771 C 69.609456 61.131667 70.60806 59.425107 71.294713 57.600415 C 71.915884 55.948377 72.280583 54.200925 72.37244 52.438934 " stroke="#000000" stroke-width="1" stroke-opacity="1" stroke-miterlimit="4"/></g><g clip-path="url(#f1ebc6321d)"><path stroke-linecap="round" transform="matrix(4.295062, 0, 0, 4.29867, -4.285527, -51.316096)" fill="none" stroke-linejoin="miter" d="M 18.030421 43.354547 C 19.027205 42.361325 19.907577 41.249971 20.645161 40.051381 C 21.751991 38.25395 22.532321 36.276594 23.517282 34.408283 C 24.573182 32.406392 25.867364 30.528086 27.388915 28.852422 C 28.790416 27.311248 30.386544 25.94182 32.155472 24.843188 C 34.413697 23.441046 36.948403 22.488716 39.569509 22.055261 " stroke="#000000" stroke-width="1" stroke-opacity="1" stroke-miterlimit="4"/></g><g clip-path="url(#b8296a4f6c)"><path stroke-linecap="round" transform="matrix(4.295062, 0, 0, 4.29867, -4.285527, -51.316096)" fill="none" stroke-linejoin="miter" d="M 42.494379 21.387358 C 45.751208 20.793061 49.155372 21.024782 52.301245 22.055261 C 55.969156 23.257486 59.231441 25.51109 61.98624 28.215415 C 64.402714 30.588061 66.478135 33.350543 67.789598 36.472876 C 69.329338 40.139526 69.770433 44.24054 69.174728 48.171626 C 68.82367 50.485205 68.120646 52.744261 67.096578 54.847019 " stroke="#000000" stroke-width="1" stroke-opacity="1" stroke-miterlimit="4"/></g><g clip-path="url(#bdfd4465a8)"><path stroke-linecap="round" transform="matrix(4.295062, 0, 0, 4.29867, -4.285527, -51.316096)" fill="none" stroke-linejoin="miter" d="M 17.204618 47.226566 C 18.031331 46.63863 18.814388 45.987992 19.543787 45.281924 C 20.622424 44.237814 21.58192 43.075572 22.434097 41.840634 C 23.644608 40.088638 24.640483 38.189431 25.393528 36.197536 " stroke="#000000" stroke-width="1" stroke-opacity="1" stroke-miterlimit="4"/></g><path stroke-linecap="round" transform="matrix(4.295062, 0, 0, 4.29867, -4.285527, -51.316096)" fill="none" stroke-linejoin="miter" d="M 26.425782 34.34013 C 27.565353 32.045634 29.187856 29.991946 31.155959 28.352631 C 32.992188 26.82327 35.120359 25.657393 37.367671 24.843188 C 40.38167 23.750008 43.620309 23.284748 46.82075 23.46649 C 49.620113 23.625514 52.405834 24.282513 54.915984 25.531082 C 57.884509 27.007738 60.41012 29.277699 62.486451 31.862074 C 64.405443 34.251985 65.989747 36.981754 66.615466 39.983228 C 66.870119 41.205444 66.962885 42.462192 66.890127 43.708944 " stroke="#000000" stroke-width="1" stroke-opacity="1" stroke-miterlimit="4"/><path stroke-linecap="round" transform="matrix(4.295062, 0, 0, 4.29867, -4.285527, -51.316096)" fill="none" stroke-linejoin="miter" d="M 67.028367 46.520497 C 67.124772 48.404256 66.760982 50.309823 65.977015 52.02547 C 65.332197 53.436699 64.416356 54.707078 63.706057 56.085593 C 62.953921 57.546801 62.439158 59.117054 61.98624 60.696394 C 61.65792 61.840462 61.357793 63.022695 61.472387 64.206746 C 61.532412 64.827396 61.707031 65.437141 61.98624 65.995999 " stroke="#000000" stroke-width="1" stroke-opacity="1" stroke-miterlimit="4"/><g clip-path="url(#cb55ff3c73)"><path stroke-linecap="round" transform="matrix(4.295062, 0, 0, 4.29867, -4.285527, -51.316096)" fill="none" stroke-linejoin="miter" d="M 65.977015 57.186951 C 65.062993 58.361006 64.460011 59.774961 64.245375 61.247073 C 64.068937 62.454751 64.159884 63.726038 64.688289 64.825579 C 65.284904 66.06597 66.384459 66.991947 67.54313 67.734364 C 68.753641 68.510403 70.064194 69.130144 71.432044 69.574504 " stroke="#000000" stroke-width="1" stroke-opacity="1" stroke-miterlimit="4"/></g><g clip-path="url(#6d05bb760f)"><path stroke-linecap="round" transform="matrix(4.295062, 0, 0, 4.29867, -4.285527, -51.316096)" fill="none" stroke-linejoin="miter" d="M 63.662402 67.734364 C 64.920205 68.564017 66.215297 69.337331 67.54313 70.04976 C 68.701801 70.671319 69.884118 71.247442 71.088262 71.776312 " stroke="#000000" stroke-width="1" stroke-opacity="1" stroke-miterlimit="4"/></g><g clip-path="url(#104febce3d)"><path stroke-linecap="round" transform="matrix(4.295062, 0, 0, 4.29867, -4.285527, -51.316096)" fill="none" stroke-linejoin="miter" d="M 17.677545 49.634651 C 19.301867 48.881329 20.777944 47.808141 21.994821 46.495053 C 24.280331 44.027902 25.577242 40.835599 27.055138 37.815951 C 27.943695 36.003072 28.917742 34.219271 30.170089 32.635388 C 31.868987 30.486285 34.079011 28.729746 36.592799 27.639292 C 38.468135 26.825996 40.482622 26.387997 42.494379 26.030873 C 43.925893 25.777343 45.368319 25.56107 46.82075 25.531082 C 49.090799 25.483829 51.386313 25.901836 53.429903 26.889606 C 55.136077 27.713807 56.651262 28.929663 57.824484 30.417223 " stroke="#000000" stroke-width="1" stroke-opacity="1" stroke-miterlimit="4"/></g><g clip-path="url(#8c2b377ce3)"><path stroke-linecap="round" transform="matrix(4.295062, 0, 0, 4.29867, -4.285527, -51.316096)" fill="none" stroke-linejoin="miter" d="M 59.658894 32.116513 C 60.742079 33.214237 61.693389 34.442814 62.486451 35.765898 C 63.501425 37.461554 64.258108 39.321686 64.621897 41.264511 C 64.943851 42.984701 64.957494 44.754871 64.768323 46.495053 C 64.526403 48.713218 63.957072 50.89776 63.064877 52.943269 C 62.231798 54.852472 61.12042 56.638089 60.388293 58.588184 C 59.975392 59.687725 59.686179 60.832701 59.512469 61.994034 C 59.367862 62.961812 59.304199 63.957759 59.512469 64.913724 C 59.738928 65.954198 60.279156 66.905619 60.94671 67.734364 C 61.651553 68.610362 62.499184 69.360957 63.386831 70.04976 C 64.437274 70.863057 65.550471 71.59457 66.714599 72.234302 C 68.005143 72.943097 69.358441 73.539212 70.753575 74.013559 " stroke="#000000" stroke-width="1" stroke-opacity="1" stroke-miterlimit="4"/></g><g clip-path="url(#fd6fbf148e)"><path stroke-linecap="round" transform="matrix(4.295062, 0, 0, 4.29867, -4.285527, -51.316096)" fill="none" stroke-linejoin="miter" d="M 17.177334 52.699734 C 18.276889 52.138151 19.321875 51.46843 20.291375 50.705113 C 22.150341 49.242088 23.72828 47.436478 25.011548 45.449126 C 26.178404 43.644426 27.102431 41.696148 28.029185 39.75605 C 29.300631 37.091708 30.631192 34.364665 32.797561 32.360048 C 34.044451 31.205076 35.529623 30.331804 37.079367 29.634823 C 39.237551 28.664319 41.543069 28.02186 43.892242 27.736525 " stroke="#000000" stroke-width="1" stroke-opacity="1" stroke-miterlimit="4"/></g><path stroke-linecap="round" transform="matrix(4.295062, 0, 0, 4.29867, -4.285527, -51.316096)" fill="none" stroke-linejoin="miter" d="M 46.276885 27.591131 C 48.37959 27.563869 50.486843 27.997325 52.407653 28.852422 C 53.981954 29.553039 55.432566 30.537173 56.641258 31.764842 C 58.155533 33.30329 59.263273 35.187049 60.340091 37.058086 C 61.213187 38.574725 62.087192 40.124078 62.486451 41.827912 C 63.04214 44.202374 62.631057 46.698605 61.98624 49.05035 C 61.29322 51.577476 60.331906 54.031905 59.123214 56.357298 " stroke="#000000" stroke-width="1" stroke-opacity="1" stroke-miterlimit="4"/><g clip-path="url(#d70f904a2a)"><path stroke-linecap="round" transform="matrix(4.295062, 0, 0, 4.29867, -4.285527, -51.316096)" fill="none" stroke-linejoin="miter" d="M 16.949965 55.673038 C 19.380082 54.436282 21.607385 52.802419 23.517282 50.855959 C 25.573604 48.758653 27.251585 46.313311 28.663999 43.738023 C 30.087326 41.143652 31.260549 38.391165 33.032205 36.021246 C 34.491003 34.069334 36.357245 32.400031 38.537255 31.311395 C 41.803179 29.681167 45.690273 29.431271 49.204483 30.417223 C 51.80649 31.147827 54.219327 32.535429 56.167421 34.408283 C 57.834488 36.012159 59.171416 37.987697 59.870802 40.19314 C 60.404664 41.873347 60.562003 43.661691 60.421944 45.419139 C 60.293708 47.01938 59.920823 48.599629 59.32057 50.088098 " stroke="#000000" stroke-width="1" stroke-opacity="1" stroke-miterlimit="4"/></g><path stroke-linecap="round" transform="matrix(4.295062, 0, 0, 4.29867, -4.285527, -51.316096)" fill="none" stroke-linejoin="miter" d="M 58.217377 52.412582 C 57.734446 53.64752 57.253334 54.882459 56.774041 56.119215 C 56.136499 57.763983 55.497138 59.429651 55.259766 61.17892 C 55.106064 62.318444 55.126073 63.477051 55.259766 64.619301 C 55.384364 65.678859 55.606275 66.72842 55.962789 67.734364 C 56.212895 68.443159 56.529392 69.128327 56.912281 69.775329 C 57.447052 70.682223 58.111878 71.512786 58.878565 72.234302 " stroke="#000000" stroke-width="1" stroke-opacity="1" stroke-miterlimit="4"/><g clip-path="url(#8cc060cb2d)"><path stroke-linecap="round" transform="matrix(4.295062, 0, 0, 4.29867, -4.285527, -51.316096)" fill="none" stroke-linejoin="miter" d="M 58.217377 58.288309 C 57.604391 59.577771 57.274252 60.999904 57.256062 62.427489 C 57.236963 63.917776 57.560736 65.414424 58.217377 66.752955 C 58.896755 68.136923 59.912638 69.325517 60.94671 70.468676 C 61.970779 71.600931 63.030317 72.710467 64.245375 73.634627 C 65.918808 74.906823 67.874179 75.806447 69.930501 76.249898 " stroke="#000000" stroke-width="1" stroke-opacity="1" stroke-miterlimit="4"/></g><g clip-path="url(#73cac6e017)"><path stroke-linecap="round" transform="matrix(4.295062, 0, 0, 4.29867, -4.285527, -51.316096)" fill="none" stroke-linejoin="miter" d="M 60.215493 73.496502 C 61.509675 74.419753 62.855698 75.270307 64.245375 76.042712 C 65.836046 76.927797 67.483105 77.709288 69.174728 78.382643 " stroke="#000000" stroke-width="1" stroke-opacity="1" stroke-miterlimit="4"/></g><g clip-path="url(#bd6f1f5162)"><path stroke-linecap="round" transform="matrix(4.295062, 0, 0, 4.29867, -4.285527, -51.316096)" fill="none" stroke-linejoin="miter" d="M 17.177334 58.344649 C 18.574287 57.378689 19.949413 56.379107 21.299073 55.347719 C 24.516794 52.887838 27.656301 50.172608 29.68352 46.665891 C 31.013172 44.365942 31.819876 41.797924 33.089502 39.464353 C 33.550606 38.617434 34.070825 37.804138 34.646523 37.030824 " stroke="#000000" stroke-width="1" stroke-opacity="1" stroke-miterlimit="4"/></g><path stroke-linecap="round" transform="matrix(4.295062, 0, 0, 4.29867, -4.285527, -51.316096)" fill="none" stroke-linejoin="miter" d="M 36.094406 35.509642 C 36.992058 34.754502 37.9752 34.102048 39.019277 33.568634 C 40.518091 32.80259 42.156055 32.280081 43.836764 32.171945 C 45.375595 32.072895 46.918974 32.320973 48.41324 32.705358 C 50.36952 33.208784 52.303063 33.968467 53.84917 35.268833 C 54.986014 36.224797 55.880937 37.446105 56.56759 38.76192 C 57.185123 39.945062 57.642589 41.21544 57.875415 42.529437 C 58.43656 45.706292 57.653503 49.004005 56.258369 51.91279 C 55.435294 53.628437 54.398493 55.249578 53.78096 57.049736 C 53.324403 58.377363 53.10522 59.777687 53.023367 61.17892 C 52.950609 62.428398 52.985169 63.685146 53.127047 64.929172 " stroke="#000000" stroke-width="1" stroke-opacity="1" stroke-miterlimit="4"/><g clip-path="url(#cdd3c7ae4c)"><path stroke-linecap="round" transform="matrix(4.295062, 0, 0, 4.29867, -4.285527, -51.316096)" fill="none" stroke-linejoin="miter" d="M 53.298938 67.234573 C 53.5736 68.392271 54.020152 69.509077 54.618586 70.537738 C 55.686309 72.370609 57.218774 73.895427 58.878565 75.217602 C 61.74341 77.498467 65.040256 79.235923 68.541733 80.31002 " stroke="#000000" stroke-width="1" stroke-opacity="1" stroke-miterlimit="4"/></g><g clip-path="url(#0463e78baa)"><path stroke-linecap="round" transform="matrix(4.295062, 0, 0, 4.29867, -4.285527, -51.316096)" fill="none" stroke-linejoin="miter" d="M 42.76995 96.27517 C 42.950936 95.837171 43.256519 95.450969 43.640318 95.172903 C 44.025025 94.895746 44.487038 94.726726 44.959965 94.692195 C 45.507469 94.652212 46.066796 94.793971 46.529718 95.088393 C 46.993551 95.383724 47.35734 95.83081 47.552877 96.344232 " stroke="#000000" stroke-width="1" stroke-opacity="1" stroke-miterlimit="4"/></g><g clip-path="url(#045557021d)"><path stroke-linecap="round" transform="matrix(4.295062, 0, 0, 4.29867, -4.285527, -51.316096)" fill="none" stroke-linejoin="miter" d="M 39.673189 95.656338 C 40.608129 94.209669 42.123314 93.149203 43.802204 92.765727 C 44.589809 92.585802 45.410155 92.549454 46.210493 92.662134 C 48.109476 92.929295 49.8684 94.067002 50.890649 95.68996 " stroke="#000000" stroke-width="1" stroke-opacity="1" stroke-miterlimit="4"/></g><g clip-path="url(#c4812ad9a1)"><path stroke-linecap="round" transform="matrix(4.295062, 0, 0, 4.29867, -4.285527, -51.316096)" fill="none" stroke-linejoin="miter" d="M 36.507308 94.86485 C 37.605953 93.979765 38.768262 93.173738 39.982411 92.455856 C 41.025578 91.83975 42.106034 91.287253 43.217412 90.804728 " stroke="#000000" stroke-width="1" stroke-opacity="1" stroke-miterlimit="4"/></g><g clip-path="url(#d71e5c00ad)"><path stroke-linecap="round" transform="matrix(4.295062, 0, 0, 4.29867, -4.285527, -51.316096)" fill="none" stroke-linejoin="miter" d="M 44.959965 90.529388 C 45.801229 90.440334 46.664321 90.559376 47.449197 90.872881 C 48.665165 91.359042 49.646488 92.275931 50.684199 93.075597 C 51.784663 93.923425 52.974256 94.654938 54.227512 95.253779 " stroke="#000000" stroke-width="1" stroke-opacity="1" stroke-miterlimit="4"/></g><g clip-path="url(#21697c0672)"><path stroke-linecap="round" transform="matrix(4.295062, 0, 0, 4.29867, -4.285527, -51.316096)" fill="none" stroke-linejoin="miter" d="M 33.961688 94.027018 C 35.352275 93.183734 36.707392 92.280475 38.021583 91.320876 C 39.319404 90.372181 40.597215 89.357151 42.081478 88.740136 C 43.093723 88.318493 44.186912 88.093133 45.283738 88.085863 C 46.522443 88.078594 47.757509 88.350298 48.894353 88.84282 C 49.768358 89.221753 50.586885 89.729722 51.313555 90.345828 " stroke="#000000" stroke-width="1" stroke-opacity="1" stroke-miterlimit="4"/></g><g clip-path="url(#de9f0f0209)"><path stroke-linecap="round" transform="matrix(4.295062, 0, 0, 4.29867, -4.285527, -51.316096)" fill="none" stroke-linejoin="miter" d="M 52.812369 91.389029 L 56.754942 94.186043 " stroke="#000000" stroke-width="1" stroke-opacity="1" stroke-miterlimit="4"/></g><g clip-path="url(#b9687a78fd)"><path stroke-linecap="round" transform="matrix(4.295062, 0, 0, 4.29867, -4.285527, -51.316096)" fill="none" stroke-linejoin="miter" d="M 31.346039 92.421325 C 32.447413 92.069654 33.510589 91.598941 34.511921 91.020092 C 35.709699 90.328563 36.811982 89.487096 37.952463 88.705604 C 38.879218 88.069507 39.832347 87.472483 40.808213 86.916352 " stroke="#000000" stroke-width="1" stroke-opacity="1" stroke-miterlimit="4"/></g><g clip-path="url(#dd653a8fa0)"><path stroke-linecap="round" transform="matrix(4.295062, 0, 0, 4.29867, -4.285527, -51.316096)" fill="none" stroke-linejoin="miter" d="M 42.872721 86.124864 C 44.17236 85.787732 45.549305 85.752293 46.864405 86.021271 C 48.455986 86.347499 49.925697 87.104455 51.313555 87.948648 C 52.570449 88.712874 53.778231 89.55525 55.019664 90.345828 C 56.261097 91.136407 57.535271 91.87519 58.838548 92.559449 " stroke="#000000" stroke-width="1" stroke-opacity="1" stroke-miterlimit="4"/></g><path stroke-linecap="round" transform="matrix(4.295062, 0, 0, 4.29867, -4.285527, -51.316096)" fill="none" stroke-linejoin="miter" d="M 29.728993 90.804728 C 31.220532 90.075941 32.669325 89.259918 34.064459 88.361203 C 35.774271 87.259845 37.414054 86.02945 39.253012 85.16163 C 41.789537 83.963949 44.695308 83.498688 47.449197 84.025741 C 48.210428 84.171135 48.957106 84.391043 49.675591 84.680013 " stroke="#000000" stroke-width="1" stroke-opacity="1" stroke-miterlimit="4"/><g clip-path="url(#0f1cee92e7)"><path stroke-linecap="round" transform="matrix(4.295062, 0, 0, 4.29867, -4.285527, -51.316096)" fill="none" stroke-linejoin="miter" d="M 51.888343 85.814994 C 53.064294 86.485623 54.222964 87.18533 55.363446 87.914117 C 56.283834 88.502053 57.19149 89.108164 58.116425 89.689739 C 58.980426 90.233148 59.858979 90.754749 60.750264 91.253631 " stroke="#000000" stroke-width="1" stroke-opacity="1" stroke-miterlimit="4"/></g><path stroke-linecap="round" transform="matrix(4.295062, 0, 0, 4.29867, -4.285527, -51.316096)" fill="none" stroke-linejoin="miter" d="M 27.733606 89.393499 C 29.037793 88.885529 30.303781 88.281236 31.51793 87.586072 C 33.261393 86.588307 34.89299 85.4088 36.610988 84.370143 C 38.740068 83.082499 41.053772 81.997497 43.526633 81.72034 C 46.958081 81.335955 50.390438 82.544541 53.401709 84.232018 C 55.357079 85.327924 57.189671 86.62829 59.114119 87.775993 C 60.264604 88.462979 61.447831 89.094533 62.658342 89.668839 " stroke="#000000" stroke-width="1" stroke-opacity="1" stroke-miterlimit="4"/><path stroke-linecap="round" transform="matrix(4.295062, 0, 0, 4.29867, -4.285527, -51.316096)" fill="none" stroke-linejoin="miter" d="M 26.323011 87.586072 C 27.731787 87.007223 29.110551 86.355677 30.452026 85.63416 C 32.414672 84.578238 34.297285 83.372378 36.077126 82.030211 " stroke="#000000" stroke-width="1" stroke-opacity="1" stroke-miterlimit="4"/><path stroke-linecap="round" transform="matrix(4.295062, 0, 0, 4.29867, -4.285527, -51.316096)" fill="none" stroke-linejoin="miter" d="M 38.158914 81.148761 C 39.715025 80.283668 41.446665 79.736623 43.217412 79.553064 C 44.385177 79.431296 45.568404 79.465827 46.727074 79.655748 " stroke="#000000" stroke-width="1" stroke-opacity="1" stroke-miterlimit="4"/><path stroke-linecap="round" transform="matrix(4.295062, 0, 0, 4.29867, -4.285527, -51.316096)" fill="none" stroke-linejoin="miter" d="M 48.30956 79.828403 C 51.170768 80.459049 53.906467 81.648552 56.319303 83.310585 C 56.867717 83.6877 57.399759 84.09026 57.944535 84.472827 C 59.705278 85.713218 61.603351 86.759145 63.592372 87.586072 " stroke="#000000" stroke-width="1" stroke-opacity="1" stroke-miterlimit="4"/><path stroke-linecap="round" transform="matrix(4.295062, 0, 0, 4.29867, -4.285527, -51.316096)" fill="none" stroke-linejoin="miter" d="M 25.187077 85.98674 C 26.355752 85.364273 27.514423 84.721814 28.66218 84.060272 C 29.785381 83.41327 30.898578 82.748093 31.999952 82.064742 " stroke="#000000" stroke-width="1" stroke-opacity="1" stroke-miterlimit="4"/><path stroke-linecap="round" transform="matrix(4.295062, 0, 0, 4.29867, -4.285527, -51.316096)" fill="none" stroke-linejoin="miter" d="M 33.892568 81.148761 C 35.161285 80.300933 36.510036 79.574873 37.916084 78.981484 C 39.995143 78.104578 42.207895 77.520276 44.459754 77.384878 C 46.182299 77.281285 47.921215 77.443036 49.593739 77.866495 C 52.149362 78.514407 54.513996 79.759341 56.754942 81.148761 C 57.910884 81.864825 59.042271 82.622691 60.215493 83.310585 C 61.392353 84.000297 62.61014 84.620038 63.784271 85.315202 C 64.372701 85.663239 64.949308 86.030358 65.514092 86.416561 " stroke="#000000" stroke-width="1" stroke-opacity="1" stroke-miterlimit="4"/><g clip-path="url(#e26920d22c)"><path stroke-linecap="round" transform="matrix(4.295062, 0, 0, 4.29867, -4.285527, -51.316096)" fill="none" stroke-linejoin="miter" d="M 18.993555 71.70725 C 22.854275 70.109735 26.49854 67.992438 29.798114 65.428963 C 36.639182 60.11391 41.955061 52.856941 44.959965 44.731244 " stroke="#000000" stroke-width="1" stroke-opacity="1" stroke-miterlimit="4"/></g><g clip-path="url(#76cbee61b0)"><path stroke-linecap="round" transform="matrix(4.295062, 0, 0, 4.29867, -4.285527, -51.316096)" fill="none" stroke-linejoin="miter" d="M 40.06972 50.134442 C 41.362993 48.152543 42.465276 46.047058 43.357471 43.855247 C 43.453875 43.616256 43.55028 43.37363 43.697614 43.162809 C 43.966819 42.775698 44.403367 42.515806 44.868108 42.439474 C 45.333759 42.364051 45.821238 42.467644 46.227773 42.706636 C 46.633399 42.944718 46.958081 43.314563 47.163622 43.738023 C 47.369164 44.161482 47.458292 44.637647 47.44465 45.109268 C 47.413728 46.156104 46.892599 47.118429 46.374198 48.028958 C 43.327458 53.380359 39.897829 58.56274 35.594195 62.967264 C 31.098662 67.568978 25.680922 71.264707 19.756604 73.771842 " stroke="#000000" stroke-width="1" stroke-opacity="1" stroke-miterlimit="4"/></g><g clip-path="url(#05ef8c8410)"><path stroke-linecap="round" transform="matrix(4.295062, 0, 0, 4.29867, -4.285527, -51.316096)" fill="none" stroke-linejoin="miter" d="M 39.074755 52.164503 C 36.939308 55.356806 34.435525 58.30194 31.629795 60.923572 C 27.768166 64.532065 23.331749 67.52536 18.539727 69.755338 " stroke="#000000" stroke-width="1" stroke-opacity="1" stroke-miterlimit="4"/></g><g clip-path="url(#08e419a6dc)"><path stroke-linecap="round" transform="matrix(4.295062, 0, 0, 4.29867, -4.285527, -51.316096)" fill="none" stroke-linejoin="miter" d="M 17.955844 67.541717 C 21.322719 66.015082 24.513156 64.100427 27.445303 61.84864 C 31.981762 58.362824 35.937067 53.996465 38.345356 48.806815 C 39.310309 46.726775 40.050621 44.483166 41.556711 42.753889 C 41.995987 42.249554 42.498017 41.795198 43.071896 41.450796 C 43.644865 41.106395 44.292411 40.874673 44.959965 40.826512 C 46.014046 40.751089 47.059033 41.1382 47.94577 41.712505 C 48.343211 41.969671 48.717005 42.266819 49.027136 42.623034 C 49.337267 42.979249 49.583734 43.398165 49.705604 43.855247 C 49.835659 44.343225 49.821107 44.862099 49.72925 45.360073 C 49.636484 45.857138 49.468231 46.336937 49.293612 46.812193 C 48.655161 48.545106 47.914848 50.240761 47.077222 51.886438 C 44.175089 57.584058 40.086091 62.67375 35.146734 66.734781 " stroke="#000000" stroke-width="1" stroke-opacity="1" stroke-miterlimit="4"/></g><g clip-path="url(#bf3cbbc7c2)"><path stroke-linecap="round" transform="matrix(4.295062, 0, 0, 4.29867, -4.285527, -51.316096)" fill="none" stroke-linejoin="miter" d="M 20.437801 75.940027 C 22.903386 75.149448 25.276206 74.070808 27.493505 72.734094 C 29.708076 71.399197 31.767126 69.805317 33.615179 67.996981 " stroke="#000000" stroke-width="1" stroke-opacity="1" stroke-miterlimit="4"/></g><g clip-path="url(#89b80569cd)"><path stroke-linecap="round" transform="matrix(4.295062, 0, 0, 4.29867, -4.285527, -51.316096)" fill="none" stroke-linejoin="miter" d="M 17.177334 60.729108 C 18.607938 59.93762 19.986701 59.049809 21.299073 58.073853 C 23.404507 56.508144 25.338959 54.7198 27.125168 52.796966 C 29.288808 50.467939 31.239631 47.939904 32.943986 45.254662 " stroke="#000000" stroke-width="1" stroke-opacity="1" stroke-miterlimit="4"/></g><g clip-path="url(#f784c51735)"><path stroke-linecap="round" transform="matrix(4.295062, 0, 0, 4.29867, -4.285527, -51.316096)" fill="none" stroke-linejoin="miter" d="M 17.53021 62.870032 C 19.465572 61.910433 21.319991 60.786357 23.065273 59.512343 C 24.878765 58.18926 26.574026 56.705334 28.126499 55.084193 " stroke="#000000" stroke-width="1" stroke-opacity="1" stroke-miterlimit="4"/></g><g clip-path="url(#8186d1a7b2)"><path stroke-linecap="round" transform="matrix(4.295062, 0, 0, 4.29867, -4.285527, -51.316096)" fill="none" stroke-linejoin="miter" d="M 17.749393 65.108188 C 19.881202 64.301252 21.915697 63.236243 23.795581 61.945872 C 26.690439 59.956703 29.19786 57.445934 31.435168 54.738883 C 33.850733 51.816467 35.969808 48.650517 37.75056 45.303733 " stroke="#000000" stroke-width="1" stroke-opacity="1" stroke-miterlimit="4"/></g><path stroke-linecap="round" transform="matrix(4.295062, 0, 0, 4.29867, -4.285527, -51.316096)" fill="none" stroke-linejoin="miter" d="M 29.68352 53.200434 C 31.780768 51.32758 33.550606 49.089424 34.890262 46.617729 C 36.034381 44.504975 36.86746 42.222292 38.192564 40.218584 C 38.877399 39.182653 39.708659 38.213058 40.778201 37.580595 C 41.945057 36.890883 43.320182 36.644622 44.670752 36.531033 C 45.915823 36.426531 47.205458 36.430166 48.369586 36.885431 C 49.390926 37.284355 50.250379 38.00678 51.04526 38.76192 C 51.656427 39.342586 52.242129 39.950514 52.798727 40.582977 " stroke="#000000" stroke-width="1" stroke-opacity="1" stroke-miterlimit="4"/><path stroke-linecap="round" transform="matrix(4.295062, 0, 0, 4.29867, -4.285527, -51.316096)" fill="none" stroke-linejoin="miter" d="M 34.025352 43.405435 C 34.281823 42.051455 34.820232 40.75018 35.594195 39.609747 C 36.718306 37.955893 38.318981 36.663705 40.06972 35.697745 C 41.81864 34.732693 43.779467 34.067517 45.776673 34.111135 C 47.683842 34.153844 49.551903 34.852643 51.094372 35.973993 C 52.25668 36.820003 53.238913 37.896826 54.062897 39.074516 C 54.982376 40.391239 55.71905 41.867895 55.962789 43.454505 C 56.222899 45.156521 55.903674 46.900338 55.376178 48.539654 C 54.873239 50.104455 54.182948 51.603828 53.429903 53.065036 C 52.831468 54.226369 52.191198 55.371346 51.726457 56.592654 C 51.275357 57.78034 50.995239 59.028909 50.850632 60.291109 C 50.683289 61.761404 50.69966 63.252599 50.899744 64.719259 " stroke="#000000" stroke-width="1" stroke-opacity="1" stroke-miterlimit="4"/><g clip-path="url(#f531488e8e)"><path stroke-linecap="round" transform="matrix(4.295062, 0, 0, 4.29867, -4.285527, -51.316096)" fill="none" stroke-linejoin="miter" d="M 38.710056 43.21097 C 39.102949 42.097799 39.788692 41.090038 40.680887 40.316725 C 41.577629 39.538868 42.679912 39.000911 43.84404 38.76192 C 44.772613 38.571999 45.741204 38.57109 46.669778 38.76192 C 48.056726 39.048164 49.355456 39.772407 50.30131 40.826512 C 50.954313 41.555298 51.439972 42.445835 51.629143 43.405435 C 51.91108 44.836655 51.528191 46.311493 51.04526 47.688191 C 50.374977 49.598302 49.506429 51.434808 48.515102 53.200434 C 47.019016 55.863867 45.241902 58.363732 43.308359 60.729108 C 38.665491 66.408554 33.088593 71.335587 26.812308 75.133092 C 24.924239 76.275342 22.973416 77.314908 20.972572 78.247245 " stroke="#000000" stroke-width="1" stroke-opacity="1" stroke-miterlimit="4"/></g><path stroke-linecap="round" transform="matrix(4.295062, 0, 0, 4.29867, -4.285527, -51.316096)" fill="none" stroke-linejoin="miter" d="M 22.021196 80.283668 L 30.072775 75.940027 " stroke="#000000" stroke-width="1" stroke-opacity="1" stroke-miterlimit="4"/><path stroke-linecap="round" transform="matrix(4.295062, 0, 0, 4.29867, -4.285527, -51.316096)" fill="none" stroke-linejoin="miter" d="M 32.263699 74.232559 C 34.351853 72.895844 36.335417 71.398288 38.192564 69.755338 C 40.462613 67.747086 42.541672 65.523469 44.392453 63.123562 " stroke="#000000" stroke-width="1" stroke-opacity="1" stroke-miterlimit="4"/><path stroke-linecap="round" transform="matrix(4.295062, 0, 0, 4.29867, -4.285527, -51.316096)" fill="none" stroke-linejoin="miter" d="M 53.527216 43.016506 C 53.817339 44.257806 53.85008 45.558172 53.62453 46.812193 C 53.376244 48.187982 52.825102 49.490166 52.226668 50.753275 C 51.070725 53.194073 49.726522 55.54491 48.22316 57.788518 C 47.449197 58.94349 46.632489 60.070292 45.776673 61.166198 " stroke="#000000" stroke-width="1" stroke-opacity="1" stroke-miterlimit="4"/><path stroke-linecap="round" transform="matrix(4.295062, 0, 0, 4.29867, -4.285527, -51.316096)" fill="none" stroke-linejoin="miter" d="M 22.578704 82.188327 C 25.153427 81.118773 27.645387 79.848395 30.023663 78.392639 C 32.993098 76.577034 35.782457 74.473367 38.39083 72.169784 C 42.51075 68.530395 46.18139 64.383945 49.293612 59.85311 " stroke="#000000" stroke-width="1" stroke-opacity="1" stroke-miterlimit="4"/><path stroke-linecap="round" transform="matrix(4.295062, 0, 0, 4.29867, -4.285527, -51.316096)" fill="none" stroke-linejoin="miter" d="M 24.135724 84.033919 C 26.386674 83.181548 28.538491 82.068377 30.534788 80.723484 C 32.474697 79.416757 34.279095 77.885578 36.378163 76.8551 C 38.324438 75.898227 40.475346 75.401161 42.637167 75.230324 C 45.165506 75.030407 47.728406 75.271216 50.175802 75.940027 " stroke="#000000" stroke-width="1" stroke-opacity="1" stroke-miterlimit="4"/><path stroke-linecap="round" transform="matrix(4.295062, 0, 0, 4.29867, -4.285527, -51.316096)" fill="none" stroke-linejoin="miter" d="M 52.226668 76.749689 C 53.987411 77.234941 55.682671 77.953732 57.255153 78.882435 C 58.400181 79.558516 59.47609 80.343643 60.534718 81.148761 C 61.57152 81.938431 62.604683 82.755363 63.784271 83.310585 C 64.556415 83.673161 65.383128 83.917604 66.22803 84.033919 " stroke="#000000" stroke-width="1" stroke-opacity="1" stroke-miterlimit="4"/><g clip-path="url(#152ea4fd9d)"><path stroke-linecap="round" transform="matrix(4.295062, 0, 0, 4.29867, -4.285527, -51.316096)" fill="none" stroke-linejoin="miter" d="M 50.856089 66.734781 C 50.847904 67.762534 51.028889 68.792104 51.388132 69.755338 C 52.162095 71.831743 53.716387 73.520129 55.376178 74.986789 C 58.8531 78.058234 62.963925 80.406344 67.375787 81.842108 " stroke="#000000" stroke-width="1" stroke-opacity="1" stroke-miterlimit="4"/></g><path stroke-linecap="round" transform="matrix(4.295062, 0, 0, 4.29867, -4.285527, -51.316096)" fill="none" stroke-linejoin="miter" d="M 39.490385 73.771842 L 48.612415 64.786504 " stroke="#000000" stroke-width="1" stroke-opacity="1" stroke-miterlimit="4"/><path stroke-linecap="round" transform="matrix(4.295062, 0, 0, 4.29867, -4.285527, -51.316096)" fill="none" stroke-linejoin="miter" d="M 48.612415 64.786504 C 48.624239 65.865144 48.741561 66.941967 48.963473 67.996981 C 49.394564 70.052486 50.222185 72.02439 51.388132 73.771842 " stroke="#000000" stroke-width="1" stroke-opacity="1" stroke-miterlimit="4"/><path stroke-linecap="round" transform="matrix(4.295062, 0, 0, 4.29867, -4.285527, -51.316096)" fill="none" stroke-linejoin="miter" d="M 51.388132 73.771842 C 50.072122 73.37837 48.716095 73.118479 47.347336 72.996711 C 46.140463 72.889483 44.924496 72.889483 43.717623 72.996711 " stroke="#000000" stroke-width="1" stroke-opacity="1" stroke-miterlimit="4"/><path stroke-linecap="round" transform="matrix(4.295062, 0, 0, 4.29867, -4.285527, -51.316096)" fill="none" stroke-linejoin="miter" d="M 43.717623 72.996711 L 47.077222 69.279173 " stroke="#000000" stroke-width="1" stroke-opacity="1" stroke-miterlimit="4"/><g clip-path="url(#78f75c8cac)"><path stroke-linecap="round" transform="matrix(4.295062, 0, 0, 4.29867, -4.285527, -51.316096)" fill="none" stroke-linejoin="miter" d="M 71.932255 60.283839 L 70.429803 63.380728 " stroke="#000000" stroke-width="1" stroke-opacity="1" stroke-miterlimit="4"/></g><g clip-path="url(#5db9584f58)"><path stroke-linecap="round" transform="matrix(4.295062, 0, 0, 4.29867, -4.285527, -51.316096)" fill="none" stroke-linejoin="miter" d="M 70.429803 63.380728 L 72.382445 64.757425 " stroke="#000000" stroke-width="1" stroke-opacity="1" stroke-miterlimit="4"/></g></svg>