<svg xmlns="http://www.w3.org/2000/svg" xmlns:xlink="http://www.w3.org/1999/xlink" width="500" zoomAndPan="magnify" viewBox="0 0 375 374.999991" height="500" preserveAspectRatio="xMidYMid meet" version="1.0"><defs><g/></defs><path stroke-linecap="butt" transform="matrix(0.644363, 0, 0, 0.644363, 12.457661, 145.938564)" fill="none" stroke-linejoin="miter" d="M 69.623243 31.994573 C 69.792984 31.473225 69.883917 30.770011 69.883917 29.87887 C 69.883917 28.448193 69.501999 27.290316 68.744226 26.399174 C 67.98039 25.508033 66.810388 24.53202 65.228157 23.471138 C 63.882351 22.489063 62.918464 21.646419 62.330431 20.931081 C 61.766648 20.215743 61.615093 19.367037 61.875767 18.391025 C 62.136441 17.154339 62.79722 16.317757 63.858103 15.881279 C 64.943234 15.426615 66.634584 15.202314 68.938216 15.202314 L 106.796575 15.202314 C 108.663728 15.202314 110.106529 15.517548 111.124976 16.141953 C 112.167673 16.754234 112.689021 17.542319 112.689021 18.518331 C 112.689021 18.979057 112.543528 19.561027 112.264668 20.276365 C 112.003993 20.888646 111.622076 21.440305 111.124976 21.937404 C 110.646064 22.416317 110.203524 22.773986 109.791295 23.010411 C 109.397253 23.22865 109.118392 23.42264 108.942589 23.598444 C 107.511913 24.398652 106.347973 25.289794 105.462893 26.265806 C 104.589939 27.241818 103.844289 28.751303 103.213822 30.79426 L 90.12556 76.951753 C 87.482446 86.36633 82.953992 93.368156 76.552323 97.945108 C 70.150653 102.522059 61.839394 104.813566 51.618547 104.813566 C 44.762213 104.813566 38.9607 103.813305 34.207945 101.818845 C 29.45519 99.800137 25.872438 97.108526 23.465749 93.744012 C 21.077247 90.361311 19.882997 86.669439 19.882997 82.68052 C 19.882997 80.728496 20.143671 78.818907 20.665019 76.951753 C 21.835021 72.932523 23.823418 69.907492 26.618087 67.870597 C 29.418817 65.82764 32.55903 64.809192 36.026601 64.809192 C 40.021582 64.809192 43.082987 66.015568 45.204753 68.422256 C 47.33258 70.810758 48.399525 73.8661 48.399525 77.600407 C 48.399525 79.467561 48.138851 81.334715 47.617503 83.201868 C 46.550558 86.930113 44.556099 89.688409 41.628062 91.470692 C 43.040552 92.355771 44.677342 92.804373 46.544496 92.804373 C 48.41165 92.804373 50.04844 91.870796 51.454868 90.003642 C 52.891606 88.136489 54.091919 85.511562 55.067931 82.122799 Z M 180.670388 85.608557 C 180.500647 86.323895 180.415776 86.857367 180.415776 87.202912 C 180.415776 87.833379 180.567331 88.318354 180.87044 88.669961 C 181.17355 89.015506 181.597903 89.191309 182.137437 89.191309 C 183.204382 89.191309 184.11371 88.724521 184.871484 87.790944 C 185.629257 86.857367 186.144543 86.390579 186.405217 86.390579 C 186.859881 86.390579 187.235737 86.681564 187.538846 87.269596 C 187.848018 87.851566 187.999572 88.536593 187.999572 89.318615 C 188.084443 91.816236 187.193302 94.289609 185.326148 96.738732 C 183.458994 99.169669 180.834067 101.188378 177.451367 102.794857 C 174.086853 104.401337 170.322235 105.201546 166.157512 105.201546 C 160.901596 105.201546 156.712624 104.140663 153.590598 102.012835 C 150.486758 99.866821 148.492298 97.06609 147.601157 93.616706 C 144.412446 97.150961 140.872129 99.830448 136.992329 101.655166 C 133.124654 103.479885 129.196356 104.389213 125.207437 104.389213 C 118.975509 104.389213 113.749903 102.861541 109.518497 99.800137 C 105.305277 96.738732 103.201698 92.452766 103.201698 86.942238 C 103.201698 84.444617 103.644237 81.862125 104.535379 79.194763 L 113.064876 51.33295 C 113.343737 50.526679 113.489229 49.865901 113.489229 49.344553 C 113.489229 48.368541 113.258866 47.586518 112.804202 47.004548 C 112.367725 46.416516 111.706946 45.822422 110.815805 45.210141 C 109.930725 44.494803 109.300258 43.87646 108.930465 43.355112 C 108.58492 42.815577 108.542485 42.100239 108.803159 41.209097 C 109.342693 39.16614 112.143424 37.365671 117.199288 35.807689 C 122.279401 34.243644 127.57169 33.461622 133.082218 33.461622 C 138.229015 33.461622 141.999696 34.437634 144.412446 36.389659 C 146.819135 38.341683 148.02551 41.015107 148.02551 44.397808 C 148.02551 46.440765 147.710276 48.392789 147.079809 50.259943 L 138.683679 77.994449 C 138.313886 78.970462 138.125958 79.904038 138.125958 80.789118 C 138.125958 82.050053 138.489689 82.995754 139.205028 83.620159 C 139.920366 84.23244 140.853942 84.535549 141.999696 84.535549 C 143.697108 84.535549 145.073225 84.044512 146.134108 83.0685 C 147.201052 82.092488 148.261935 80.443573 149.32888 78.121755 L 157.464335 51.33295 C 157.749258 50.526679 157.888689 49.865901 157.888689 49.344553 C 157.888689 48.368541 157.658325 47.586518 157.203661 47.004548 C 156.767184 46.416516 156.148841 45.822422 155.348632 45.210141 C 154.457491 44.494803 153.827023 43.87646 153.463292 43.355112 C 153.111685 42.815577 153.06925 42.100239 153.329924 41.209097 C 153.784588 39.16614 156.542883 37.365671 161.598747 35.807689 C 166.67886 34.243644 171.971149 33.461622 177.481678 33.461622 C 182.628475 33.461622 186.423404 34.437634 188.87859 36.389659 C 191.327713 38.341683 192.552275 40.972672 192.552275 44.270502 C 192.552275 45.961852 192.194606 47.956312 191.479268 50.259943 Z M 235.484685 5.466442 C 240.62542 5.466442 244.414287 6.442454 246.845224 8.394478 C 249.294347 10.352564 250.524971 13.019927 250.524971 16.402627 C 250.524971 18.354652 250.2158 20.270303 249.609581 22.131394 L 228.682911 90.130948 C 228.397988 91.197893 228.258558 92.13147 228.258558 92.931679 C 228.258558 94.083494 228.476796 94.992822 228.907212 95.665725 C 229.361876 96.338628 229.992343 96.98122 230.798614 97.587439 C 231.423019 98.217906 231.871621 98.739254 232.132295 99.151483 C 232.411156 99.539463 232.453591 100.048687 232.259601 100.679154 C 231.829186 101.83097 230.938044 102.673614 229.592239 103.21921 C 228.270682 103.740559 226.227725 104.001233 223.46943 104.001233 L 193.067561 104.001233 C 190.769992 104.001233 189.084704 103.619315 188.023821 102.861541 C 186.93869 102.103768 186.581021 101.103507 186.950814 99.866821 C 187.296359 98.799876 188.229936 97.872361 189.751545 97.06609 C 191.073101 96.350752 192.182482 95.502046 193.067561 94.526034 C 193.958702 93.550022 194.716476 91.998102 195.346943 89.870274 L 215.594649 23.33777 C 215.879571 22.537561 216.019002 21.864658 216.019002 21.319061 C 216.019002 20.343049 215.770452 19.548903 215.267291 18.942684 C 214.79444 18.312216 214.151848 17.687811 213.351639 17.057344 C 212.460498 16.360192 211.805782 15.741849 211.393553 15.202314 C 211.005573 14.656717 210.938889 13.953504 211.199563 13.086611 C 211.74516 11.025467 214.539828 9.243184 219.601754 7.745824 C 224.675805 6.224215 229.974157 5.466442 235.484685 5.466442 Z M 284.27923 5.466442 C 289.426027 5.466442 293.208832 6.442454 295.639769 8.394478 C 298.094954 10.352564 299.319516 13.019927 299.319516 16.402627 C 299.319516 18.354652 299.016407 20.270303 298.410188 22.131394 L 277.477456 90.130948 C 277.198595 91.197893 277.053103 92.13147 277.053103 92.931679 C 277.053103 94.083494 277.271341 94.992822 277.707819 95.665725 C 278.162483 96.338628 278.79295 96.98122 279.593159 97.587439 C 280.223627 98.217906 280.666166 98.739254 280.92684 99.151483 C 281.211763 99.539463 281.254198 100.048687 281.060208 100.679154 C 280.623731 101.83097 279.732589 102.673614 278.392846 103.21921 C 277.065227 103.740559 275.028332 104.001233 272.270037 104.001233 L 241.868168 104.001233 C 239.564537 104.001233 237.885311 103.619315 236.824428 102.861541 C 235.739297 102.103768 235.381628 101.103507 235.745359 99.866821 C 236.096966 98.799876 237.030543 97.872361 238.546089 97.06609 C 239.873708 96.350752 240.977027 95.502046 241.868168 94.526034 C 242.75931 93.550022 243.517083 91.998102 244.14755 89.870274 L 264.395256 23.33777 C 264.674116 22.537561 264.813547 21.864658 264.813547 21.319061 C 264.813547 20.343049 264.564997 19.548903 264.067898 18.942684 C 263.588985 18.312216 262.952455 17.687811 262.146184 17.057344 C 261.255043 16.360192 260.606389 15.741849 260.19416 15.202314 C 259.80618 14.656717 259.739496 13.953504 260.00017 13.086611 C 260.539705 11.025467 263.340435 9.243184 268.396299 7.745824 C 273.476412 6.224215 278.768702 5.466442 284.27923 5.466442 Z M 325.593036 33.461622 C 330.758019 33.461622 334.534762 34.437634 336.923264 36.389659 C 339.329952 38.341683 340.536327 41.015107 340.536327 44.397808 C 340.536327 46.440765 340.221093 48.392789 339.590626 50.259943 L 327.320759 90.130948 C 327.060085 91.197893 326.926717 92.13147 326.926717 92.931679 C 326.926717 94.083494 327.144956 94.992822 327.581433 95.665725 C 328.036097 96.338628 328.666565 96.98122 329.466773 97.587439 C 330.072992 98.217906 330.50947 98.739254 330.770144 99.151483 C 331.049004 99.539463 331.103564 100.048687 330.933823 100.679154 C 330.473096 101.83097 329.575893 102.673614 328.230087 103.21921 C 326.90853 103.740559 324.865573 104.001233 322.107278 104.001233 L 291.741782 104.001233 C 289.419965 104.001233 287.722552 103.619315 286.661669 102.861541 C 285.600787 102.103768 285.243118 101.103507 285.588662 99.866821 C 285.958456 98.799876 286.892032 97.872361 288.389393 97.06609 C 289.735198 96.350752 290.850641 95.502046 291.741782 94.526034 C 292.626862 93.550022 293.378573 91.998102 293.984792 89.870274 L 305.606004 51.33295 C 305.866678 50.526679 306.000047 49.865901 306.000047 49.344553 C 306.000047 48.368541 305.769683 47.586518 305.315019 47.004548 C 304.878542 46.416516 304.217764 45.822422 303.326622 45.210141 C 302.435481 44.494803 301.811075 43.87646 301.441282 43.355112 C 301.095737 42.815577 301.04724 42.100239 301.307914 41.209097 C 301.853511 39.16614 304.654241 37.365671 309.710105 35.807689 C 314.784156 34.243644 320.082507 33.461622 325.593036 33.461622 Z M 334.546886 4.005454 C 337.996271 4.005454 340.869747 5.139083 343.173379 7.418466 C 345.495196 9.679662 346.653074 12.444019 346.653074 15.723662 C 346.653074 18.04548 346.05898 20.3188 344.864729 22.555747 C 343.670478 24.768446 341.979128 26.568915 339.784616 27.963218 C 337.614353 29.32721 335.19554 30.012238 332.528178 30.012238 C 329.163664 30.012238 326.344747 28.884671 324.065364 26.623475 C 321.804169 24.344093 320.634167 21.513051 320.549296 18.130351 C 320.549296 15.917652 321.125204 13.723141 322.270957 11.552878 C 323.422773 9.364428 325.059563 7.563958 327.187391 6.151469 C 329.339467 4.720793 331.788591 4.005454 334.546886 4.005454 Z M 418.532428 85.608557 C 418.356624 86.323895 418.271754 86.857367 418.271754 87.202912 C 418.271754 87.833379 418.423309 88.318354 418.726418 88.669961 C 419.029527 89.015506 419.45388 89.191309 419.993415 89.191309 C 421.06036 89.191309 421.969688 88.724521 422.727461 87.790944 C 423.491297 86.857367 424.000521 86.390579 424.261195 86.390579 C 424.715859 86.390579 425.097777 86.681564 425.400886 87.269596 C 425.703995 87.851566 425.85555 88.536593 425.85555 89.318615 C 425.940421 91.816236 425.049279 94.289609 423.188188 96.738732 C 421.321034 99.169669 418.696107 101.188378 415.307344 102.794857 C 411.94283 104.401337 408.178212 105.201546 404.013489 105.201546 C 398.763635 105.201546 394.574664 104.140663 391.446575 102.012835 C 388.342736 99.866821 386.348276 97.06609 385.457134 93.616706 C 382.268424 97.150961 378.734169 99.830448 374.848307 101.655166 C 370.986694 103.479885 367.058396 104.389213 363.063415 104.389213 C 356.837549 104.389213 351.605881 102.861541 347.374474 99.800137 C 343.161254 96.738732 341.057675 92.452766 341.057675 86.942238 C 341.057675 84.444617 341.506277 81.862125 342.391356 79.194763 L 350.920854 51.33295 C 351.205777 50.526679 351.345207 49.865901 351.345207 49.344553 C 351.345207 48.368541 351.114844 47.586518 350.66018 47.004548 C 350.229765 46.416516 349.562924 45.822422 348.677845 45.210141 C 347.786703 44.494803 347.156236 43.87646 346.786442 43.355112 C 346.440898 42.815577 346.398462 42.100239 346.659136 41.209097 C 347.198671 39.16614 349.999401 37.365671 355.055266 35.807689 C 360.135378 34.243644 365.427668 33.461622 370.938196 33.461622 C 376.084993 33.461622 379.861736 34.437634 382.268424 36.389659 C 384.675112 38.341683 385.881488 41.015107 385.881488 44.397808 C 385.881488 46.440765 385.566254 48.392789 384.935786 50.259943 L 376.539657 77.994449 C 376.169864 78.970462 375.987998 79.904038 375.987998 80.789118 C 375.987998 82.050053 376.345667 82.995754 377.061005 83.620159 C 377.776343 84.23244 378.70992 84.535549 379.861736 84.535549 C 381.553086 84.535549 382.929202 84.044512 383.996147 83.0685 C 385.05703 82.092488 386.117913 80.443573 387.184858 78.121755 L 395.320313 51.33295 C 395.605236 50.526679 395.744666 49.865901 395.744666 49.344553 C 395.744666 48.368541 395.514303 47.586518 395.059639 47.004548 C 394.629224 46.416516 394.010881 45.822422 393.20461 45.210141 C 392.313468 44.494803 391.689063 43.87646 391.319269 43.355112 C 390.973725 42.815577 390.925227 42.100239 391.185901 41.209097 C 391.640565 39.16614 394.398861 37.365671 399.454725 35.807689 C 404.534838 34.243644 409.827127 33.461622 415.343717 33.461622 C 420.484452 33.461622 424.279381 34.437634 426.734567 36.389659 C 429.183691 38.341683 430.414315 40.972672 430.414315 44.270502 C 430.414315 45.961852 430.056646 47.956312 429.335246 50.259943 Z M 464.944533 119.199136 C 462.88339 119.199136 461.252661 118.647477 460.05841 117.544159 C 458.864159 116.434779 458.270065 114.894983 458.270065 112.91871 C 458.270065 111.942698 458.397371 110.92425 458.658045 109.857305 L 460.810122 101.588482 C 457.421359 100.182055 453.90529 98.054227 450.261916 95.211061 L 445.47885 99.212105 C 443.241903 101.079258 441.411122 102.352318 439.974384 103.02522 C 438.567957 103.673874 436.973601 104.001233 435.191318 104.001233 C 433.148361 104.001233 431.535819 103.510195 430.341569 102.534183 C 429.123069 101.558171 428.51685 100.22449 428.51685 98.53314 C 428.51685 97.641998 428.704778 96.708421 429.074571 95.732409 L 435.579298 75.872684 C 436.300699 73.550866 437.276711 71.901951 438.513397 70.925939 C 439.76827 69.949927 441.374749 69.464952 443.326774 69.464952 C 445.369731 69.464952 447.212636 70.18029 448.861551 71.610966 C 450.510465 73.023456 452.668604 75.593823 455.342029 79.328131 C 458.706543 84.123321 461.761885 87.190787 464.52018 88.536593 L 469.078945 71.87164 C 468.363607 71.416976 465.714431 69.786248 461.13748 66.99158 C 456.554466 64.190849 452.953527 60.83846 450.3286 56.928349 C 447.703673 53.0243 446.388178 48.762583 446.388178 44.137134 C 446.388178 41.124227 446.879215 38.008263 447.855227 34.795303 C 449.722381 28.678556 453.541559 23.749998 459.312761 20.015691 C 465.108212 16.263197 471.734183 14.383919 479.202798 14.383919 L 484.798196 14.680966 L 486.9139 6.672817 C 487.629238 4.260066 488.629499 2.568716 489.90862 1.592704 C 491.21199 0.616692 492.927589 0.131717 495.055417 0.131717 C 496.831638 0.131717 498.189568 0.640941 499.123145 1.659388 C 500.056722 2.677835 500.52351 4.078201 500.52351 5.860484 C 500.52351 7.115357 500.347707 8.279296 500.002162 9.340179 L 497.589411 17.869677 C 498.935217 18.04548 501.693512 19.379161 505.858235 21.87072 L 508.919639 19.336726 C 511.065654 17.639314 512.823688 16.49356 514.193742 15.881279 C 515.581983 15.256874 517.158152 14.94164 518.910124 14.94164 C 521.0622 14.94164 522.75355 15.408429 523.990237 16.342005 C 525.226923 17.275582 525.845266 18.62745 525.845266 20.409733 C 525.845266 21.125071 525.71796 21.87072 525.457286 22.652742 L 519.855825 41.075729 C 519.225358 43.203557 518.449398 44.713042 517.515821 45.604183 C 516.582244 46.495325 515.181879 46.937864 513.314725 46.937864 C 511.362701 46.937864 509.647102 46.34377 508.17399 45.149519 C 506.719065 43.931019 504.439683 41.457647 501.335843 37.72334 C 499.55356 35.686445 498.153195 34.17696 497.134747 33.200948 C 496.1163 32.224936 495.073604 31.418665 494.012721 30.79426 L 489.71463 46.416516 C 490.429968 46.852994 493.188263 48.489784 497.983454 51.33295 C 502.802892 54.176116 506.628133 57.6255 509.471298 61.681104 C 512.314464 65.71852 513.739078 70.004487 513.739078 74.539003 C 513.739078 77.297298 513.290476 80.055593 512.405397 82.807826 C 510.25332 89.906647 506.106784 95.295932 499.965789 98.987804 C 493.849042 102.673614 486.695661 104.522581 478.51777 104.522581 L 473.734705 104.522581 L 471.455322 112.53073 C 470.758171 114.852548 469.891278 116.543898 468.848582 117.604781 C 467.830134 118.671726 466.526764 119.199136 464.944533 119.199136 Z M 481.445807 26.787154 C 478.51777 26.617413 476.074709 27.181196 474.122685 28.478504 C 472.17066 29.763688 471.194648 31.564158 471.194648 33.885975 C 471.194648 35.383336 471.703872 36.801887 472.722319 38.147693 C 473.740767 39.475312 475.232065 40.621065 477.184089 41.597077 Z M 477.050721 91.858672 C 479.978758 92.034475 482.421819 91.476754 484.373843 90.197632 C 486.350116 88.918511 487.338253 87.118041 487.338253 84.796224 C 487.338253 83.298863 486.816905 81.886374 485.774208 80.564817 C 484.755761 79.219011 483.270525 78.055071 481.318501 77.079059 Z M 477.050721 91.858672 " stroke="#1c794c" stroke-width="26.499933" stroke-opacity="1" stroke-miterlimit="4"/><g fill="#ffeedc" fill-opacity="1"><g transform="translate(27.157195, 212.952331)"><g><path d="M 30.15625 -46.390625 C 30.269531 -46.734375 30.328125 -47.191406 30.328125 -47.765625 C 30.328125 -48.679688 30.082031 -49.425781 29.59375 -50 C 29.101562 -50.570312 28.34375 -51.203125 27.3125 -51.890625 C 26.457031 -52.515625 25.84375 -53.054688 25.46875 -53.515625 C 25.09375 -53.972656 24.992188 -54.519531 25.171875 -55.15625 C 25.335938 -55.957031 25.765625 -56.5 26.453125 -56.78125 C 27.140625 -57.070312 28.226562 -57.21875 29.71875 -57.21875 L 54.125 -57.21875 C 55.320312 -57.21875 56.25 -57.015625 56.90625 -56.609375 C 57.570312 -56.210938 57.90625 -55.695312 57.90625 -55.0625 C 57.90625 -54.78125 57.816406 -54.410156 57.640625 -53.953125 C 57.472656 -53.546875 57.226562 -53.1875 56.90625 -52.875 C 56.59375 -52.5625 56.304688 -52.332031 56.046875 -52.1875 C 55.796875 -52.039062 55.613281 -51.910156 55.5 -51.796875 C 54.582031 -51.285156 53.835938 -50.710938 53.265625 -50.078125 C 52.691406 -49.453125 52.203125 -48.476562 51.796875 -47.15625 L 43.375 -17.4375 C 41.664062 -11.363281 38.75 -6.851562 34.625 -3.90625 C 30.5 -0.957031 25.144531 0.515625 18.5625 0.515625 C 14.144531 0.515625 10.40625 -0.125 7.34375 -1.40625 C 4.28125 -2.695312 1.972656 -4.429688 0.421875 -6.609375 C -1.117188 -8.785156 -1.890625 -11.164062 -1.890625 -13.75 C -1.890625 -15.007812 -1.71875 -16.238281 -1.375 -17.4375 C -0.625 -20.019531 0.648438 -21.96875 2.453125 -23.28125 C 4.253906 -24.59375 6.269531 -25.25 8.5 -25.25 C 11.082031 -25.25 13.0625 -24.476562 14.4375 -22.9375 C 15.8125 -21.394531 16.5 -19.421875 16.5 -17.015625 C 16.5 -15.804688 16.328125 -14.601562 15.984375 -13.40625 C 15.296875 -11 14.003906 -9.222656 12.109375 -8.078125 C 13.023438 -7.503906 14.085938 -7.21875 15.296875 -7.21875 C 16.492188 -7.21875 17.550781 -7.816406 18.46875 -9.015625 C 19.382812 -10.222656 20.160156 -11.914062 20.796875 -14.09375 Z M 30.15625 -46.390625 "/></g></g></g><g fill="#ffeedc" fill-opacity="1"><g transform="translate(77.845142, 212.952331)"><g><path d="M 51.03125 -11.859375 C 50.914062 -11.398438 50.859375 -11.054688 50.859375 -10.828125 C 50.859375 -10.421875 50.957031 -10.101562 51.15625 -9.875 C 51.351562 -9.644531 51.625 -9.53125 51.96875 -9.53125 C 52.65625 -9.53125 53.242188 -9.832031 53.734375 -10.4375 C 54.222656 -11.039062 54.550781 -11.34375 54.71875 -11.34375 C 55.007812 -11.34375 55.253906 -11.15625 55.453125 -10.78125 C 55.648438 -10.40625 55.75 -9.960938 55.75 -9.453125 C 55.8125 -7.847656 55.238281 -6.253906 54.03125 -4.671875 C 52.832031 -3.097656 51.144531 -1.796875 48.96875 -0.765625 C 46.789062 0.253906 44.359375 0.765625 41.671875 0.765625 C 38.285156 0.765625 35.585938 0.0820312 33.578125 -1.28125 C 31.578125 -2.65625 30.289062 -4.460938 29.71875 -6.703125 C 27.65625 -4.410156 25.378906 -2.675781 22.890625 -1.5 C 20.398438 -0.332031 17.867188 0.25 15.296875 0.25 C 11.285156 0.25 7.914062 -0.734375 5.1875 -2.703125 C 2.46875 -4.679688 1.109375 -7.445312 1.109375 -11 C 1.109375 -12.601562 1.394531 -14.265625 1.96875 -15.984375 L 7.46875 -33.9375 C 7.644531 -34.445312 7.734375 -34.875 7.734375 -35.21875 C 7.734375 -35.851562 7.585938 -36.351562 7.296875 -36.71875 C 7.015625 -37.09375 6.585938 -37.484375 6.015625 -37.890625 C 5.441406 -38.347656 5.039062 -38.75 4.8125 -39.09375 C 4.582031 -39.4375 4.550781 -39.894531 4.71875 -40.46875 C 5.0625 -41.78125 6.863281 -42.9375 10.125 -43.9375 C 13.394531 -44.9375 16.804688 -45.4375 20.359375 -45.4375 C 23.679688 -45.4375 26.113281 -44.804688 27.65625 -43.546875 C 29.207031 -42.296875 29.984375 -40.582031 29.984375 -38.40625 C 29.984375 -37.082031 29.78125 -35.820312 29.375 -34.625 L 23.96875 -16.75 C 23.738281 -16.125 23.625 -15.523438 23.625 -14.953125 C 23.625 -14.148438 23.851562 -13.546875 24.3125 -13.140625 C 24.769531 -12.742188 25.367188 -12.546875 26.109375 -12.546875 C 27.203125 -12.546875 28.09375 -12.859375 28.78125 -13.484375 C 29.46875 -14.117188 30.15625 -15.179688 30.84375 -16.671875 L 36.078125 -33.9375 C 36.253906 -34.445312 36.34375 -34.875 36.34375 -35.21875 C 36.34375 -35.851562 36.195312 -36.351562 35.90625 -36.71875 C 35.625 -37.09375 35.222656 -37.484375 34.703125 -37.890625 C 34.128906 -38.347656 33.726562 -38.75 33.5 -39.09375 C 33.269531 -39.4375 33.242188 -39.894531 33.421875 -40.46875 C 33.703125 -41.78125 35.472656 -42.9375 38.734375 -43.9375 C 42.003906 -44.9375 45.414062 -45.4375 48.96875 -45.4375 C 52.289062 -45.4375 54.738281 -44.804688 56.3125 -43.546875 C 57.882812 -42.296875 58.671875 -40.609375 58.671875 -38.484375 C 58.671875 -37.398438 58.441406 -36.113281 57.984375 -34.625 Z M 51.03125 -11.859375 "/></g></g></g><g fill="#ffeedc" fill-opacity="1"><g transform="translate(136.780625, 212.952331)"><g><path d="M 27.40625 -63.484375 C 30.726562 -63.484375 33.175781 -62.851562 34.75 -61.59375 C 36.320312 -60.332031 37.109375 -58.613281 37.109375 -56.4375 C 37.109375 -55.175781 36.910156 -53.945312 36.515625 -52.75 L 23.015625 -8.9375 C 22.847656 -8.25 22.765625 -7.644531 22.765625 -7.125 C 22.765625 -6.382812 22.90625 -5.796875 23.1875 -5.359375 C 23.476562 -4.929688 23.878906 -4.519531 24.390625 -4.125 C 24.796875 -3.71875 25.082031 -3.382812 25.25 -3.125 C 25.425781 -2.875 25.457031 -2.546875 25.34375 -2.140625 C 25.050781 -1.398438 24.472656 -0.859375 23.609375 -0.515625 C 22.753906 -0.171875 21.441406 0 19.671875 0 L 0.078125 0 C -1.398438 0 -2.484375 -0.238281 -3.171875 -0.71875 C -3.859375 -1.207031 -4.085938 -1.851562 -3.859375 -2.65625 C -3.628906 -3.34375 -3.03125 -3.945312 -2.0625 -4.46875 C -1.195312 -4.925781 -0.484375 -5.46875 0.078125 -6.09375 C 0.648438 -6.726562 1.140625 -7.734375 1.546875 -9.109375 L 14.609375 -51.96875 C 14.773438 -52.488281 14.859375 -52.921875 14.859375 -53.265625 C 14.859375 -53.890625 14.703125 -54.398438 14.390625 -54.796875 C 14.078125 -55.203125 13.660156 -55.609375 13.140625 -56.015625 C 12.566406 -56.472656 12.148438 -56.875 11.890625 -57.21875 C 11.640625 -57.5625 11.597656 -58.019531 11.765625 -58.59375 C 12.109375 -59.90625 13.910156 -61.046875 17.171875 -62.015625 C 20.441406 -62.992188 23.851562 -63.484375 27.40625 -63.484375 Z M 27.40625 -63.484375 "/></g></g></g><g fill="#ffeedc" fill-opacity="1"><g transform="translate(168.224339, 212.952331)"><g><path d="M 27.40625 -63.484375 C 30.726562 -63.484375 33.175781 -62.851562 34.75 -61.59375 C 36.320312 -60.332031 37.109375 -58.613281 37.109375 -56.4375 C 37.109375 -55.175781 36.910156 -53.945312 36.515625 -52.75 L 23.015625 -8.9375 C 22.847656 -8.25 22.765625 -7.644531 22.765625 -7.125 C 22.765625 -6.382812 22.90625 -5.796875 23.1875 -5.359375 C 23.476562 -4.929688 23.878906 -4.519531 24.390625 -4.125 C 24.796875 -3.71875 25.082031 -3.382812 25.25 -3.125 C 25.425781 -2.875 25.457031 -2.546875 25.34375 -2.140625 C 25.050781 -1.398438 24.472656 -0.859375 23.609375 -0.515625 C 22.753906 -0.171875 21.441406 0 19.671875 0 L 0.078125 0 C -1.398438 0 -2.484375 -0.238281 -3.171875 -0.71875 C -3.859375 -1.207031 -4.085938 -1.851562 -3.859375 -2.65625 C -3.628906 -3.34375 -3.03125 -3.945312 -2.0625 -4.46875 C -1.195312 -4.925781 -0.484375 -5.46875 0.078125 -6.09375 C 0.648438 -6.726562 1.140625 -7.734375 1.546875 -9.109375 L 14.609375 -51.96875 C 14.773438 -52.488281 14.859375 -52.921875 14.859375 -53.265625 C 14.859375 -53.890625 14.703125 -54.398438 14.390625 -54.796875 C 14.078125 -55.203125 13.660156 -55.609375 13.140625 -56.015625 C 12.566406 -56.472656 12.148438 -56.875 11.890625 -57.21875 C 11.640625 -57.5625 11.597656 -58.019531 11.765625 -58.59375 C 12.109375 -59.90625 13.910156 -61.046875 17.171875 -62.015625 C 20.441406 -62.992188 23.851562 -63.484375 27.40625 -63.484375 Z M 27.40625 -63.484375 "/></g></g></g><g fill="#ffeedc" fill-opacity="1"><g transform="translate(199.668043, 212.952331)"><g><path d="M 22.578125 -45.4375 C 25.898438 -45.4375 28.332031 -44.804688 29.875 -43.546875 C 31.425781 -42.296875 32.203125 -40.582031 32.203125 -38.40625 C 32.203125 -37.082031 32.003906 -35.820312 31.609375 -34.625 L 23.703125 -8.9375 C 23.523438 -8.25 23.4375 -7.644531 23.4375 -7.125 C 23.4375 -6.382812 23.578125 -5.796875 23.859375 -5.359375 C 24.148438 -4.929688 24.554688 -4.519531 25.078125 -4.125 C 25.472656 -3.71875 25.753906 -3.382812 25.921875 -3.125 C 26.097656 -2.875 26.128906 -2.546875 26.015625 -2.140625 C 25.734375 -1.398438 25.160156 -0.859375 24.296875 -0.515625 C 23.441406 -0.171875 22.128906 0 20.359375 0 L 0.765625 0 C -0.722656 0 -1.8125 -0.238281 -2.5 -0.71875 C -3.1875 -1.207031 -3.414062 -1.851562 -3.1875 -2.65625 C -2.957031 -3.34375 -2.351562 -3.945312 -1.375 -4.46875 C -0.519531 -4.925781 0.191406 -5.46875 0.765625 -6.09375 C 1.335938 -6.726562 1.820312 -7.734375 2.21875 -9.109375 L 9.703125 -33.9375 C 9.867188 -34.445312 9.953125 -34.875 9.953125 -35.21875 C 9.953125 -35.851562 9.804688 -36.351562 9.515625 -36.71875 C 9.234375 -37.09375 8.804688 -37.484375 8.234375 -37.890625 C 7.660156 -38.347656 7.257812 -38.75 7.03125 -39.09375 C 6.800781 -39.4375 6.773438 -39.894531 6.953125 -40.46875 C 7.296875 -41.78125 9.097656 -42.9375 12.359375 -43.9375 C 15.628906 -44.9375 19.035156 -45.4375 22.578125 -45.4375 Z M 28.34375 -64.4375 C 30.570312 -64.4375 32.429688 -63.703125 33.921875 -62.234375 C 35.410156 -60.773438 36.15625 -58.988281 36.15625 -56.875 C 36.15625 -55.382812 35.769531 -53.921875 35 -52.484375 C 34.226562 -51.054688 33.140625 -49.894531 31.734375 -49 C 30.335938 -48.113281 28.78125 -47.671875 27.0625 -47.671875 C 24.882812 -47.671875 23.0625 -48.398438 21.59375 -49.859375 C 20.132812 -51.328125 19.378906 -53.148438 19.328125 -55.328125 C 19.328125 -56.753906 19.695312 -58.171875 20.4375 -59.578125 C 21.1875 -60.984375 22.25 -62.144531 23.625 -63.0625 C 25 -63.976562 26.570312 -64.4375 28.34375 -64.4375 Z M 28.34375 -64.4375 "/></g></g></g><g fill="#ffeedc" fill-opacity="1"><g transform="translate(231.111757, 212.952331)"><g><path d="M 51.03125 -11.859375 C 50.914062 -11.398438 50.859375 -11.054688 50.859375 -10.828125 C 50.859375 -10.421875 50.957031 -10.101562 51.15625 -9.875 C 51.351562 -9.644531 51.625 -9.53125 51.96875 -9.53125 C 52.65625 -9.53125 53.242188 -9.832031 53.734375 -10.4375 C 54.222656 -11.039062 54.550781 -11.34375 54.71875 -11.34375 C 55.007812 -11.34375 55.253906 -11.15625 55.453125 -10.78125 C 55.648438 -10.40625 55.75 -9.960938 55.75 -9.453125 C 55.8125 -7.847656 55.238281 -6.253906 54.03125 -4.671875 C 52.832031 -3.097656 51.144531 -1.796875 48.96875 -0.765625 C 46.789062 0.253906 44.359375 0.765625 41.671875 0.765625 C 38.285156 0.765625 35.585938 0.0820312 33.578125 -1.28125 C 31.578125 -2.65625 30.289062 -4.460938 29.71875 -6.703125 C 27.65625 -4.410156 25.378906 -2.675781 22.890625 -1.5 C 20.398438 -0.332031 17.867188 0.25 15.296875 0.25 C 11.285156 0.25 7.914062 -0.734375 5.1875 -2.703125 C 2.46875 -4.679688 1.109375 -7.445312 1.109375 -11 C 1.109375 -12.601562 1.394531 -14.265625 1.96875 -15.984375 L 7.46875 -33.9375 C 7.644531 -34.445312 7.734375 -34.875 7.734375 -35.21875 C 7.734375 -35.851562 7.585938 -36.351562 7.296875 -36.71875 C 7.015625 -37.09375 6.585938 -37.484375 6.015625 -37.890625 C 5.441406 -38.347656 5.039062 -38.75 4.8125 -39.09375 C 4.582031 -39.4375 4.550781 -39.894531 4.71875 -40.46875 C 5.0625 -41.78125 6.863281 -42.9375 10.125 -43.9375 C 13.394531 -44.9375 16.804688 -45.4375 20.359375 -45.4375 C 23.679688 -45.4375 26.113281 -44.804688 27.65625 -43.546875 C 29.207031 -42.296875 29.984375 -40.582031 29.984375 -38.40625 C 29.984375 -37.082031 29.78125 -35.820312 29.375 -34.625 L 23.96875 -16.75 C 23.738281 -16.125 23.625 -15.523438 23.625 -14.953125 C 23.625 -14.148438 23.851562 -13.546875 24.3125 -13.140625 C 24.769531 -12.742188 25.367188 -12.546875 26.109375 -12.546875 C 27.203125 -12.546875 28.09375 -12.859375 28.78125 -13.484375 C 29.46875 -14.117188 30.15625 -15.179688 30.84375 -16.671875 L 36.078125 -33.9375 C 36.253906 -34.445312 36.34375 -34.875 36.34375 -35.21875 C 36.34375 -35.851562 36.195312 -36.351562 35.90625 -36.71875 C 35.625 -37.09375 35.222656 -37.484375 34.703125 -37.890625 C 34.128906 -38.347656 33.726562 -38.75 33.5 -39.09375 C 33.269531 -39.4375 33.242188 -39.894531 33.421875 -40.46875 C 33.703125 -41.78125 35.472656 -42.9375 38.734375 -43.9375 C 42.003906 -44.9375 45.414062 -45.4375 48.96875 -45.4375 C 52.289062 -45.4375 54.738281 -44.804688 56.3125 -43.546875 C 57.882812 -42.296875 58.671875 -40.609375 58.671875 -38.484375 C 58.671875 -37.398438 58.441406 -36.113281 57.984375 -34.625 Z M 51.03125 -11.859375 "/></g></g></g><g fill="#ffeedc" fill-opacity="1"><g transform="translate(290.047249, 212.952331)"><g><path d="M 21.984375 9.796875 C 20.671875 9.796875 19.628906 9.4375 18.859375 8.71875 C 18.085938 8 17.703125 7.007812 17.703125 5.75 C 17.703125 5.125 17.785156 4.46875 17.953125 3.78125 L 19.328125 -1.546875 C 17.148438 -2.460938 14.890625 -3.835938 12.546875 -5.671875 L 9.453125 -3.09375 C 8.015625 -1.882812 6.835938 -1.066406 5.921875 -0.640625 C 5.003906 -0.210938 3.972656 0 2.828125 0 C 1.515625 0 0.472656 -0.3125 -0.296875 -0.9375 C -1.066406 -1.570312 -1.453125 -2.429688 -1.453125 -3.515625 C -1.453125 -4.085938 -1.335938 -4.691406 -1.109375 -5.328125 L 3.09375 -18.125 C 3.550781 -19.613281 4.179688 -20.671875 4.984375 -21.296875 C 5.785156 -21.929688 6.816406 -22.25 8.078125 -22.25 C 9.390625 -22.25 10.578125 -21.789062 11.640625 -20.875 C 12.703125 -19.957031 14.09375 -18.296875 15.8125 -15.890625 C 17.988281 -12.796875 19.960938 -10.820312 21.734375 -9.96875 L 24.65625 -20.703125 C 24.195312 -20.992188 22.492188 -22.039062 19.546875 -23.84375 C 16.597656 -25.644531 14.273438 -27.804688 12.578125 -30.328125 C 10.890625 -32.847656 10.046875 -35.597656 10.046875 -38.578125 C 10.046875 -40.523438 10.363281 -42.523438 11 -44.578125 C 12.195312 -48.535156 14.65625 -51.71875 18.375 -54.125 C 22.101562 -56.53125 26.375 -57.734375 31.1875 -57.734375 L 34.796875 -57.5625 L 36.171875 -62.71875 C 36.628906 -64.257812 37.269531 -65.34375 38.09375 -65.96875 C 38.925781 -66.601562 40.03125 -66.921875 41.40625 -66.921875 C 42.550781 -66.921875 43.421875 -66.585938 44.015625 -65.921875 C 44.617188 -65.265625 44.921875 -64.367188 44.921875 -63.234375 C 44.921875 -62.429688 44.804688 -61.6875 44.578125 -61 L 43.03125 -55.5 C 43.894531 -55.382812 45.671875 -54.523438 48.359375 -52.921875 L 50.34375 -54.546875 C 51.71875 -55.640625 52.847656 -56.382812 53.734375 -56.78125 C 54.617188 -57.1875 55.632812 -57.390625 56.78125 -57.390625 C 58.15625 -57.390625 59.242188 -57.085938 60.046875 -56.484375 C 60.847656 -55.878906 61.25 -55.003906 61.25 -53.859375 C 61.25 -53.398438 61.164062 -52.914062 61 -52.40625 L 57.390625 -40.546875 C 56.984375 -39.171875 56.476562 -38.195312 55.875 -37.625 C 55.28125 -37.050781 54.378906 -36.765625 53.171875 -36.765625 C 51.910156 -36.765625 50.804688 -37.148438 49.859375 -37.921875 C 48.921875 -38.703125 47.445312 -40.296875 45.4375 -42.703125 C 44.289062 -44.015625 43.390625 -44.984375 42.734375 -45.609375 C 42.078125 -46.242188 41.40625 -46.757812 40.71875 -47.15625 L 37.96875 -37.109375 C 38.425781 -36.828125 40.203125 -35.769531 43.296875 -33.9375 C 46.390625 -32.101562 48.851562 -29.878906 50.6875 -27.265625 C 52.519531 -24.660156 53.4375 -21.898438 53.4375 -18.984375 C 53.4375 -17.210938 53.148438 -15.4375 52.578125 -13.65625 C 51.203125 -9.070312 48.535156 -5.59375 44.578125 -3.21875 C 40.628906 -0.84375 36.019531 0.34375 30.75 0.34375 L 27.65625 0.34375 L 26.203125 5.5 C 25.742188 6.988281 25.179688 8.078125 24.515625 8.765625 C 23.859375 9.453125 23.015625 9.796875 21.984375 9.796875 Z M 32.640625 -49.734375 C 30.753906 -49.847656 29.179688 -49.488281 27.921875 -48.65625 C 26.660156 -47.832031 26.03125 -46.675781 26.03125 -45.1875 C 26.03125 -44.207031 26.359375 -43.289062 27.015625 -42.4375 C 27.671875 -41.582031 28.628906 -40.835938 29.890625 -40.203125 Z M 29.8125 -7.8125 C 31.695312 -7.695312 33.269531 -8.054688 34.53125 -8.890625 C 35.789062 -9.722656 36.421875 -10.882812 36.421875 -12.375 C 36.421875 -13.34375 36.09375 -14.253906 35.4375 -15.109375 C 34.78125 -15.972656 33.820312 -16.722656 32.5625 -17.359375 Z M 29.8125 -7.8125 "/></g></g></g><g fill="#ffeedc" fill-opacity="1"><g transform="translate(346.328385, 212.952331)"><g/></g></g></svg>